<svg width="32" height="28" viewBox="0 0 32 28" fill="none" xmlns="http://www.w3.org/2000/svg">
<path d="M5.01277 16.325C5.27277 16.1513 5.57844 16.0586 5.89113 16.0586C6.31044 16.0586 6.71258 16.2252 7.00908 16.5217C7.30558 16.8182 7.47215 17.2203 7.47215 17.6396C7.47215 17.9523 7.37942 18.258 7.2057 18.518C7.03197 18.778 6.78505 18.9806 6.49616 19.1003C6.20727 19.2199 5.88938 19.2513 5.58269 19.1903C5.27601 19.1292 4.9943 18.9787 4.77319 18.7576C4.55208 18.5365 4.4015 18.2547 4.3405 17.9481C4.2795 17.6414 4.3108 17.3235 4.43047 17.0346C4.55013 16.7457 4.75277 16.4988 5.01277 16.325ZM5.03527 18.9205C5.28861 19.0898 5.58645 19.1801 5.89113 19.1801C6.2997 19.1801 6.69154 19.0178 6.98044 18.7289C7.26934 18.44 7.43164 18.0482 7.43164 17.6396C7.43164 17.3349 7.34129 17.0371 7.17202 16.7838C7.00275 16.5304 6.76215 16.333 6.48066 16.2164C6.19917 16.0998 5.88943 16.0693 5.5906 16.1287C5.29177 16.1881 5.01728 16.3349 4.80183 16.5503C4.58639 16.7658 4.43967 17.0402 4.38023 17.3391C4.32079 17.6379 4.35129 17.9476 4.46789 18.2291C4.58449 18.5106 4.78194 18.7512 5.03527 18.9205Z" fill="white" stroke="black"/>
<path d="M25.8229 16.325C26.0829 16.1513 26.3886 16.0586 26.7012 16.0586C27.1206 16.0586 27.5227 16.2252 27.8192 16.5217C28.1157 16.8182 28.2823 17.2203 28.2823 17.6396C28.2823 17.9523 28.1895 18.258 28.0158 18.518C27.8421 18.778 27.5952 18.9806 27.3063 19.1003C27.0174 19.2199 26.6995 19.2513 26.3928 19.1903C26.0861 19.1292 25.8044 18.9787 25.5833 18.7576C25.3622 18.5365 25.2116 18.2547 25.1506 17.9481C25.0896 17.6414 25.1209 17.3235 25.2406 17.0346C25.3603 16.7457 25.5629 16.4988 25.8229 16.325ZM25.8454 18.9205C26.0987 19.0898 26.3966 19.1801 26.7012 19.1801C27.1098 19.1801 27.5016 19.0178 27.7905 18.7289C28.0795 18.44 28.2418 18.0482 28.2418 17.6396C28.2418 17.3349 28.1514 17.0371 27.9821 16.7838C27.8129 16.5304 27.5723 16.333 27.2908 16.2164C27.0093 16.0998 26.6995 16.0693 26.4007 16.1287C26.1019 16.1881 25.8274 16.3349 25.6119 16.5503C25.3965 16.7658 25.2498 17.0402 25.1903 17.3391C25.1309 17.6379 25.1614 17.9476 25.278 18.2291C25.3946 18.5106 25.5921 18.7512 25.8454 18.9205Z" fill="white" stroke="black"/>
<path d="M12.114 18.6597H20.4785V18.7002H12.114V18.6597Z" fill="white" stroke="black"/>
<path d="M12.114 16.5786H20.4785V16.6191H12.114V16.5786Z" fill="white" stroke="black"/>
<path d="M15.2355 8.7749H17.357V8.81541H15.2355V8.7749Z" fill="white" stroke="black"/>
<mask id="path-6-inside-1_19_270" fill="white">
<path d="M31.9038 12.957V11.9165C31.9026 11.503 31.7377 11.1067 31.4453 10.8143C31.1529 10.5218 30.7566 10.357 30.343 10.3558H28.2828L27.2059 6.57873L26.8833 5.2937C26.7987 4.95629 26.6038 4.65683 26.3295 4.44287C26.0552 4.22891 25.7173 4.11271 25.3694 4.11273H20.9785V2.03172C20.9776 1.75601 20.8678 1.49183 20.6728 1.29688C20.4778 1.10192 20.2137 0.992034 19.938 0.991211H12.6544C12.3787 0.992034 12.1145 1.10192 11.9196 1.29688C11.7246 1.49183 11.6147 1.75601 11.6139 2.03172V4.11273H7.22298C6.87511 4.11271 6.53721 4.22891 6.26292 4.44287C5.98863 4.65683 5.79369 4.95629 5.70904 5.2937L5.39169 6.57353L4.30956 10.3558H2.24936C1.8358 10.357 1.43953 10.5218 1.1471 10.8143C0.854667 11.1067 0.689834 11.503 0.688599 11.9165V12.957C0.689441 13.2206 0.757189 13.4796 0.885492 13.7098C1.0138 13.9401 1.19845 14.1339 1.42216 14.2733C0.951847 14.7565 0.688663 15.4042 0.688599 16.0786V22.3216C0.689316 22.5398 0.736017 22.7555 0.825657 22.9545C0.915297 23.1535 1.04587 23.3314 1.20885 23.4766V25.4431C1.21009 25.8567 1.37492 26.2529 1.66735 26.5454C1.95978 26.8378 2.35605 27.0026 2.76961 27.0039H6.93164C7.3452 27.0026 7.74146 26.8378 8.0339 26.5454C8.32633 26.2529 8.49116 25.8567 8.4924 25.4431V23.8824H24.1V25.4431C24.1012 25.8567 24.2661 26.2529 24.5585 26.5454C24.8509 26.8378 25.2472 27.0026 25.6607 27.0039H29.8228C30.2363 27.0026 30.6326 26.8378 30.925 26.5454C31.2175 26.2529 31.3823 25.8567 31.3835 25.4431V23.4766C31.5465 23.3314 31.6771 23.1535 31.7667 22.9545C31.8564 22.7555 31.9031 22.5398 31.9038 22.3216V16.0786C31.9037 15.4042 31.6405 14.7565 31.1702 14.2733C31.3939 14.1339 31.5786 13.9401 31.7069 13.7098C31.8352 13.4796 31.9029 13.2206 31.9038 12.957V12.957ZM12.6544 2.03172H19.938V4.11273H12.6544V2.03172ZM6.71833 5.54863C6.74622 5.43584 6.81106 5.33562 6.90252 5.26397C6.99398 5.19231 7.10679 5.15333 7.22298 5.15324H25.3694C25.4856 5.15333 25.5984 5.19231 25.6899 5.26397C25.7813 5.33562 25.8462 5.43584 25.8741 5.54863L26.0353 6.19374H6.55705L6.71833 5.54863ZM6.28132 7.23425H26.3111L28.0903 13.4773H13.1279C13.0056 12.7502 12.6296 12.09 12.0667 11.6139C11.5038 11.1378 10.7904 10.8765 10.0532 10.8765C9.31589 10.8765 8.60249 11.1378 8.03959 11.6139C7.4767 12.09 7.10074 12.7502 6.97846 13.4773H4.50205L6.28132 7.23425ZM12.0613 13.4773H8.04498C8.15857 13.0309 8.41767 12.635 8.78134 12.3523C9.14501 12.0696 9.59252 11.9161 10.0532 11.9161C10.5138 11.9161 10.9613 12.0696 11.325 12.3523C11.6886 12.635 11.9477 13.0309 12.0613 13.4773V13.4773ZM1.7291 11.9165C1.7291 11.7785 1.78392 11.6462 1.88148 11.5487C1.97905 11.4511 2.11138 11.3963 2.24936 11.3963H4.01302L3.41993 13.4773H2.24936C2.11138 13.4773 1.97905 13.4225 1.88148 13.3249C1.78392 13.2273 1.7291 13.095 1.7291 12.957V11.9165ZM7.45189 25.4431C7.45189 25.5811 7.39708 25.7134 7.29951 25.811C7.20194 25.9086 7.06962 25.9634 6.93164 25.9634H2.76961C2.63163 25.9634 2.4993 25.9086 2.40174 25.811C2.30417 25.7134 2.24936 25.5811 2.24936 25.4431V23.8824H7.45189V25.4431ZM30.343 25.4431C30.343 25.5811 30.2882 25.7134 30.1906 25.811C30.0931 25.9086 29.9608 25.9634 29.8228 25.9634H25.6607C25.5228 25.9634 25.3904 25.9086 25.2929 25.811C25.1953 25.7134 25.1405 25.5811 25.1405 25.4431V23.8824H30.343V25.4431ZM30.8633 22.3216C30.8633 22.4596 30.8085 22.5919 30.7109 22.6895C30.6133 22.787 30.481 22.8418 30.343 22.8418H2.24936C2.11138 22.8418 1.97905 22.787 1.88148 22.6895C1.78392 22.5919 1.7291 22.4596 1.7291 22.3216V21.8013H30.8633V22.3216ZM30.8633 20.7608H1.7291V16.0786C1.73034 15.665 1.89517 15.2687 2.18761 14.9763C2.48004 14.6839 2.87631 14.519 3.28986 14.5178H29.3025C29.7161 14.519 30.1123 14.6839 30.4048 14.9763C30.6972 15.2687 30.862 15.665 30.8633 16.0786V20.7608ZM30.8633 12.957C30.8633 13.095 30.8085 13.2273 30.7109 13.3249C30.6133 13.4225 30.481 13.4773 30.343 13.4773H29.1725L28.5794 11.3963H30.343C30.481 11.3963 30.6133 11.4511 30.7109 11.5487C30.8085 11.6462 30.8633 11.7785 30.8633 11.9165V12.957Z"/>
</mask>
<path d="M31.9038 12.957V11.9165C31.9026 11.503 31.7377 11.1067 31.4453 10.8143C31.1529 10.5218 30.7566 10.357 30.343 10.3558H28.2828L27.2059 6.57873L26.8833 5.2937C26.7987 4.95629 26.6038 4.65683 26.3295 4.44287C26.0552 4.22891 25.7173 4.11271 25.3694 4.11273H20.9785V2.03172C20.9776 1.75601 20.8678 1.49183 20.6728 1.29688C20.4778 1.10192 20.2137 0.992034 19.938 0.991211H12.6544C12.3787 0.992034 12.1145 1.10192 11.9196 1.29688C11.7246 1.49183 11.6147 1.75601 11.6139 2.03172V4.11273H7.22298C6.87511 4.11271 6.53721 4.22891 6.26292 4.44287C5.98863 4.65683 5.79369 4.95629 5.70904 5.2937L5.39169 6.57353L4.30956 10.3558H2.24936C1.8358 10.357 1.43953 10.5218 1.1471 10.8143C0.854667 11.1067 0.689834 11.503 0.688599 11.9165V12.957C0.689441 13.2206 0.757189 13.4796 0.885492 13.7098C1.0138 13.9401 1.19845 14.1339 1.42216 14.2733C0.951847 14.7565 0.688663 15.4042 0.688599 16.0786V22.3216C0.689316 22.5398 0.736017 22.7555 0.825657 22.9545C0.915297 23.1535 1.04587 23.3314 1.20885 23.4766V25.4431C1.21009 25.8567 1.37492 26.2529 1.66735 26.5454C1.95978 26.8378 2.35605 27.0026 2.76961 27.0039H6.93164C7.3452 27.0026 7.74146 26.8378 8.0339 26.5454C8.32633 26.2529 8.49116 25.8567 8.4924 25.4431V23.8824H24.1V25.4431C24.1012 25.8567 24.2661 26.2529 24.5585 26.5454C24.8509 26.8378 25.2472 27.0026 25.6607 27.0039H29.8228C30.2363 27.0026 30.6326 26.8378 30.925 26.5454C31.2175 26.2529 31.3823 25.8567 31.3835 25.4431V23.4766C31.5465 23.3314 31.6771 23.1535 31.7667 22.9545C31.8564 22.7555 31.9031 22.5398 31.9038 22.3216V16.0786C31.9037 15.4042 31.6405 14.7565 31.1702 14.2733C31.3939 14.1339 31.5786 13.9401 31.7069 13.7098C31.8352 13.4796 31.9029 13.2206 31.9038 12.957V12.957ZM12.6544 2.03172H19.938V4.11273H12.6544V2.03172ZM6.71833 5.54863C6.74622 5.43584 6.81106 5.33562 6.90252 5.26397C6.99398 5.19231 7.10679 5.15333 7.22298 5.15324H25.3694C25.4856 5.15333 25.5984 5.19231 25.6899 5.26397C25.7813 5.33562 25.8462 5.43584 25.8741 5.54863L26.0353 6.19374H6.55705L6.71833 5.54863ZM6.28132 7.23425H26.3111L28.0903 13.4773H13.1279C13.0056 12.7502 12.6296 12.09 12.0667 11.6139C11.5038 11.1378 10.7904 10.8765 10.0532 10.8765C9.31589 10.8765 8.60249 11.1378 8.03959 11.6139C7.4767 12.09 7.10074 12.7502 6.97846 13.4773H4.50205L6.28132 7.23425ZM12.0613 13.4773H8.04498C8.15857 13.0309 8.41767 12.635 8.78134 12.3523C9.14501 12.0696 9.59252 11.9161 10.0532 11.9161C10.5138 11.9161 10.9613 12.0696 11.325 12.3523C11.6886 12.635 11.9477 13.0309 12.0613 13.4773V13.4773ZM1.7291 11.9165C1.7291 11.7785 1.78392 11.6462 1.88148 11.5487C1.97905 11.4511 2.11138 11.3963 2.24936 11.3963H4.01302L3.41993 13.4773H2.24936C2.11138 13.4773 1.97905 13.4225 1.88148 13.3249C1.78392 13.2273 1.7291 13.095 1.7291 12.957V11.9165ZM7.45189 25.4431C7.45189 25.5811 7.39708 25.7134 7.29951 25.811C7.20194 25.9086 7.06962 25.9634 6.93164 25.9634H2.76961C2.63163 25.9634 2.4993 25.9086 2.40174 25.811C2.30417 25.7134 2.24936 25.5811 2.24936 25.4431V23.8824H7.45189V25.4431ZM30.343 25.4431C30.343 25.5811 30.2882 25.7134 30.1906 25.811C30.0931 25.9086 29.9608 25.9634 29.8228 25.9634H25.6607C25.5228 25.9634 25.3904 25.9086 25.2929 25.811C25.1953 25.7134 25.1405 25.5811 25.1405 25.4431V23.8824H30.343V25.4431ZM30.8633 22.3216C30.8633 22.4596 30.8085 22.5919 30.7109 22.6895C30.6133 22.787 30.481 22.8418 30.343 22.8418H2.24936C2.11138 22.8418 1.97905 22.787 1.88148 22.6895C1.78392 22.5919 1.7291 22.4596 1.7291 22.3216V21.8013H30.8633V22.3216ZM30.8633 20.7608H1.7291V16.0786C1.73034 15.665 1.89517 15.2687 2.18761 14.9763C2.48004 14.6839 2.87631 14.519 3.28986 14.5178H29.3025C29.7161 14.519 30.1123 14.6839 30.4048 14.9763C30.6972 15.2687 30.862 15.665 30.8633 16.0786V20.7608ZM30.8633 12.957C30.8633 13.095 30.8085 13.2273 30.7109 13.3249C30.6133 13.4225 30.481 13.4773 30.343 13.4773H29.1725L28.5794 11.3963H30.343C30.481 11.3963 30.6133 11.4511 30.7109 11.5487C30.8085 11.6462 30.8633 11.7785 30.8633 11.9165V12.957Z" fill="white" stroke="black" stroke-width="2" mask="url(#path-6-inside-1_19_270)"/>
</svg>
